<mxfile host="app.diagrams.net" modified="2020-11-14T17:56:59.833Z" agent="5.0 (Macintosh; Intel Mac OS X 10_15_7) AppleWebKit/537.36 (KHTML, like Gecko) Chrome/86.0.4240.193 Safari/537.36" etag="mIMiQzAEL2reXjaJ3hRb" version="13.9.8" type="github">
  <diagram id="Krv1udgq_vt4kFzvmENn" name="Page-1">
    <mxGraphModel dx="1298" dy="811" grid="1" gridSize="10" guides="1" tooltips="1" connect="1" arrows="1" fold="1" page="1" pageScale="1" pageWidth="850" pageHeight="1100" math="0" shadow="0">
      <root>
        <mxCell id="0" />
        <mxCell id="1" parent="0" />
      </root>
    </mxGraphModel>
  </diagram>
</mxfile>
